<?xml version="1.0" encoding="utf-8"?>
<!-- Generator: Adobe Illustrator 24.2.1, SVG Export Plug-In . SVG Version: 6.00 Build 0)  -->
<svg version="1.1" id="レイヤー_1" xmlns="http://www.w3.org/2000/svg" xmlns:xlink="http://www.w3.org/1999/xlink" x="0px"
	 y="0px" width="700px" height="433px" viewBox="0 0 700 433" style="enable-background:new 0 0 700 433;" xml:space="preserve">
<style type="text/css">
	.st0{fill:#87C028;}
	.st1{fill:#FFFFFF;}
</style>
<rect x="0" y="-0.726" class="st0" width="700" height="433.726"/>
<g>
	<g>
		<path class="st1" d="M202.785,213.495c-0.856,30.275-32.275,33.132-40.271,33.132c-16.567,0-41.272-6.855-41.272-27.277
			c0-9.283,6.425-17.137,15.995-17.137c8.282,0,16.566,5.141,16.566,14.138c0,2.428-1,4.856-1,6.712c0,3.57,2.857,5.57,6.284,5.284
			c16.852-1.714,8.854-30.847,9.996-56.553c0.715-15.852-12.852-7.426-12.852-16.994c0-2.713,1.142-11.853,28.991-11.853
			c26.99,0,30.132,6.569,30.132,10.568c0,7.426-11.139,3.999-11.425,15.995L202.785,213.495z"/>
		<path class="st1" d="M245.623,220.635c-3.428,0-6.998-1.142-10.426-1.142c-12.424,0-13.282,0.571-14.566,0.571
			c-2.285,0-4.284-1.713-4.284-4.284c0-3.57,4.427-15.138,5.713-17.709c1.855-3.57,3.569-5.141,7.711-5.141
			c3.427,0,6.998,1.142,10.424,1.142c12.425,0,13.282-0.572,14.567-0.572c2.285,0,4.284,1.714,4.284,4.284
			c0,3.57-4.427,15.138-5.713,17.708C251.477,219.065,249.764,220.635,245.623,220.635z"/>
		<path class="st1" d="M274.325,166.225c0-10.71-13.282-4.998-13.282-13.995c0-5.712,6.284-6.855,10.711-6.855
			c3.569,0,6.998,0.285,10.567,0.285c20.707,0,36.131-2.142,39.272-2.142c19.423,0,38.131,10.282,38.131,31.703
			c0,21.279-17.994,32.704-37.844,32.704c-4.284,0-8.569-0.714-12.425-0.714c-1.714,0-2.285,0.714-2.285,2.285v8.283
			c0.428,17.851,10.854,10.426,10.854,18.708c0,9.283-20.565,9.711-26.991,9.711c-5.999,0-27.134-0.143-27.134-9.425
			c0-7.855,10.426-2.999,10.426-14.709V166.225z M312.597,159.37c-5.569,0-5.426,1.714-5.426,4.57v21.422
			c0,2.999-1.286,6.284,6.427,6.284c9.425,0,13.139-7.141,13.139-15.852C326.736,166.796,322.166,159.37,312.597,159.37z"/>
		<path class="st1" d="M365.145,194.216c0-30.276,24.134-51.697,55.267-51.697c39.415,0,54.553,34.702,54.553,53.125
			c0,30.704-27.134,50.983-56.267,50.983C388.565,246.627,365.145,224.634,365.145,194.216z M413.842,163.797
			c-7.998,0-11.996,8.283-11.996,15.281c0,12.138,8.567,46.27,23.991,46.27c8.712,0,12.425-7.569,12.425-15.28
			C438.263,197.072,430.551,163.797,413.842,163.797z"/>
		<path class="st1" d="M493.809,166.225c0-10.71-13.282-4.998-13.282-13.995c0-5.712,6.284-6.855,10.711-6.855
			c3.569,0,6.998,0.285,10.567,0.285c20.707,0,36.131-2.142,39.272-2.142c19.423,0,38.13,10.282,38.13,31.703
			c0,21.279-17.994,32.704-37.844,32.704c-4.284,0-8.569-0.714-12.425-0.714c-1.714,0-2.285,0.714-2.285,2.285v8.283
			c0.428,17.851,10.854,10.426,10.854,18.708c0,9.283-20.565,9.711-26.991,9.711c-5.999,0-27.134-0.143-27.134-9.425
			c0-7.855,10.426-2.999,10.426-14.709V166.225z M532.08,159.37c-5.569,0-5.426,1.714-5.426,4.57v21.422
			c0,2.999-1.286,6.284,6.427,6.284c9.425,0,13.139-7.141,13.139-15.852C546.22,166.796,541.65,159.37,532.08,159.37z"/>
	</g>
	<g>
		<path class="st1" d="M167.648,296.435c-0.527,0.468-1.052,0.819-1.052,1.579c0,0.761,0.642,0.995,1.227,1.287
			c2.399,0.936,6.551,4.035,6.551,8.949c0,5.849-3.919,13.044-15.675,13.044c-1.99,0-3.802-0.059-5.558-0.176
			c-1.754-0.059-3.509-0.117-5.322-0.117c-1.99,0-4.036,0.059-6.026,0.117c-1.988,0.117-3.978,0.176-6.024,0.176
			c-1.814,0-3.861-1.053-3.861-3.1c0-3.627,3.802,0.058,4.153-9.651l0.642-16.846c0.351-8.833-4.678-4.797-4.678-8.833
			c0-2.222,2.398-3.275,4.212-3.275c2.164,0,4.327,0.117,6.492,0.176c2.164,0.117,4.329,0.234,6.492,0.234
			c1.404,0,2.749-0.117,4.095-0.234c1.346-0.059,2.749-0.176,4.095-0.176c10.704,0,13.453,5.089,13.453,9.593
			C170.864,291.873,169.754,294.739,167.648,296.435z M150.627,293.862c0,2.281-0.117,3.393,1.696,3.393
			c3.509,0,4.329-2.457,4.329-5.674c0-2.632-0.878-5.908-4.095-5.908c-2.164,0-1.93,1.755-1.93,3.451V293.862z M150.627,308.134
			c0,6.785,1.11,6.96,2.924,6.96c3.334,0,4.504-2.281,4.504-5.323c0-3.568-1.053-6.726-5.148-6.726
			c-1.813,0-2.222,0.936-2.281,2.164V308.134z"/>
		<path class="st1" d="M190.641,307.549c-0.644,0-1.58-0.176-1.58,0.819c0,2.924,3.802,5.381,6.552,5.381
			c4.386,0,6.551-2.632,7.778-2.632c1.229,0,2.282,1.813,2.282,2.925c0,4.504-8.248,7.78-13.513,7.78
			c-10.528,0-15.968-7.604-15.968-15.15c0-9.009,7.663-15.559,16.436-15.559c9.945,0,14.332,7.663,14.332,12.05
			c0,3.86-1.755,4.387-3.628,4.387H190.641z M195.731,300.179c0-2.106-1.287-3.744-3.452-3.744c-1.93,0-3.509,1.989-3.509,3.861
			c0,2.106,1.99,1.638,3.509,1.638C193.858,301.934,195.731,302.285,195.731,300.179z"/>
		<path class="st1" d="M224.687,291.464c1.053,0.234,1.99,0.41,2.399,0.41c0.585,0,1.053-0.176,1.578-0.41
			c0.527-0.176,1.053-0.351,1.58-0.351c2.69,0,5.382,5.381,5.382,7.78c0,1.579-1.346,2.749-2.867,2.749
			c-3.334,0-5.205-4.621-7.78-4.621c-1.052,0-2.105,0.877-2.105,1.989c0,3.744,12.869,4.445,12.869,13.512
			c0,5.498-5.323,9.3-11.406,9.3c-1.17,0-2.867-0.176-4.329-0.41c-1.463-0.176-2.75-0.351-3.1-0.351c-0.41,0-0.761,0.059-1.17,0.117
			c-0.351,0.059-0.702,0.117-1.112,0.117c-1.17,0-1.754-0.176-2.573-1.112c-1.463-1.638-2.924-4.972-2.924-7.195
			c0-1.521,0.525-2.749,2.222-2.749c2.573,0,4.914,5.791,8.189,5.791c1.17,0,2.281-0.585,2.281-1.872
			c0-3.451-11.465-3.861-11.465-13.512c0-5.849,4.797-9.534,10.821-9.534C222.348,291.113,223.577,291.288,224.687,291.464z"/>
		<path class="st1" d="M256.044,308.368c0,3.919,1.638,4.855,3.217,4.855c1.814,0,2.866-1.345,3.919-1.345
			c1.17,0,1.99,1.638,1.99,2.69c0,3.861-6.669,7.254-12.576,7.254c-2.983,0-10.47-1.287-10.47-10.588v-12.049
			c0-1.053,0-1.463-0.293-1.638c-0.293-0.176-0.936-0.059-2.282-0.059c-1.52,0-2.281,0.059-2.573-0.234
			c-0.41-0.41-0.293-0.995-0.293-2.34c0-0.819-0.176-1.462,0.527-1.93l13.336-8.481c1.346-0.819,1.287-0.644,3.043-0.644
			c2.339,0,2.456-0.234,2.456,2.457c0,1.813-0.117,3.627,0.176,4.328c0.176,0.468,0.585,0.468,2.105,0.468h4.095
			c2.516,0,2.516,0.176,2.516,2.807c0,3.335-0.41,3.569-2.692,3.569h-4.036c-2.047,0-2.164,0.059-2.164,2.164V308.368z"/>
		<path class="st1" d="M286.348,292.809c0-6.083,5.85-13.629,17.198-13.629c3.744,0,7.955,1.696,8.832,1.696
			c0.819,0,1.638-0.701,2.867-0.701c1.988,0,6.434,4.329,6.434,9.242c0,1.989-1.287,3.978-3.451,3.978
			c-3.919,0-6.2-6.669-12.284-6.669c-1.813,0-3.744,0.819-3.744,2.925c0,4.621,8.014,3.392,14.799,7.897
			c3.627,2.398,5.44,5.323,5.44,9.709c0,6.844-5.616,14.565-19.244,14.565c-3.861,0-10.47-0.995-13.804-2.808
			c-2.809-1.579-4.153-7.78-4.153-10.763c0-1.579,0.701-3.159,2.456-3.159c4.153,0,3.451,9.301,14.214,9.301
			c1.287,0,4.504-0.644,4.504-2.867c0-4.212-8.014-3.158-14.506-8.364C288.688,300.589,286.348,297.021,286.348,292.809z"/>
		<path class="st1" d="M339.114,307.549c-0.644,0-1.58-0.176-1.58,0.819c0,2.924,3.802,5.381,6.552,5.381
			c4.386,0,6.551-2.632,7.778-2.632c1.229,0,2.282,1.813,2.282,2.925c0,4.504-8.248,7.78-13.513,7.78
			c-10.528,0-15.968-7.604-15.968-15.15c0-9.009,7.663-15.559,16.436-15.559c9.945,0,14.332,7.663,14.332,12.05
			c0,3.86-1.755,4.387-3.628,4.387H339.114z M344.204,300.179c0-2.106-1.287-3.744-3.452-3.744c-1.93,0-3.509,1.989-3.509,3.861
			c0,2.106,1.99,1.638,3.509,1.638C342.331,301.934,344.204,302.285,344.204,300.179z"/>
		<path class="st1" d="M374.564,310.533c0,1.053-0.059,2.983,0.234,3.919c0.644,2.105,3.275,1.111,3.275,3.568
			c0,3.919-7.136,3.627-9.651,3.627c-2.633,0-10.821,0.293-10.821-3.861c0-2.047,2.515-1.287,3.217-3.451
			c0.761-2.398,0.761-9.71,0.761-12.577c0-2.281,0.117-6.668-0.41-9.3c-0.878-4.328-4.329-2.807-4.329-6.141
			c0-5.089,15.208-6.318,16.027-6.318c1.988,0,2.456,1.287,2.456,3.041c0,1.346-0.761,7.78-0.761,16.144V310.533z"/>
		<path class="st1" d="M394.163,307.549c-0.644,0-1.58-0.176-1.58,0.819c0,2.924,3.802,5.381,6.552,5.381
			c4.386,0,6.551-2.632,7.778-2.632c1.229,0,2.282,1.813,2.282,2.925c0,4.504-8.248,7.78-13.513,7.78
			c-10.528,0-15.968-7.604-15.968-15.15c0-9.009,7.663-15.559,16.436-15.559c9.945,0,14.332,7.663,14.332,12.05
			c0,3.86-1.755,4.387-3.628,4.387H394.163z M399.252,300.179c0-2.106-1.287-3.744-3.452-3.744c-1.93,0-3.509,1.989-3.509,3.861
			c0,2.106,1.99,1.638,3.509,1.638C397.38,301.934,399.252,302.285,399.252,300.179z"/>
		<path class="st1" d="M429.437,291.113c8.774,0,13.396,4.855,13.396,8.949c0,3.275-2.458,5.791-5.733,5.791
			c-6.317,0-3.392-7.253-8.014-7.253c-2.573,0-3.978,2.632-3.978,4.972c0,4.329,3.217,8.716,7.838,8.716
			c3.685,0,4.914-1.521,6.143-1.521c1.578,0,2.632,1.755,2.632,3.159c0,3.451-5.265,7.897-13.454,7.897
			c-8.832,0-15.968-6.493-15.968-15.442C412.3,297.956,419.611,291.113,429.437,291.113z"/>
		<path class="st1" d="M462.607,308.368c0,3.919,1.637,4.855,3.217,4.855c1.814,0,2.866-1.345,3.919-1.345
			c1.17,0,1.988,1.638,1.988,2.69c0,3.861-6.668,7.254-12.575,7.254c-2.983,0-10.47-1.287-10.47-10.588v-12.049
			c0-1.053,0-1.463-0.293-1.638c-0.293-0.176-0.936-0.059-2.282-0.059c-1.52,0-2.281,0.059-2.573-0.234
			c-0.41-0.41-0.293-0.995-0.293-2.34c0-0.819-0.176-1.462,0.527-1.93l13.336-8.481c1.346-0.819,1.287-0.644,3.043-0.644
			c2.339,0,2.456-0.234,2.456,2.457c0,1.813-0.117,3.627,0.176,4.328c0.176,0.468,0.585,0.468,2.105,0.468h4.095
			c2.516,0,2.516,0.176,2.516,2.807c0,3.335-0.41,3.569-2.692,3.569h-4.036c-2.047,0-2.164,0.059-2.164,2.164V308.368z"/>
		<path class="st1" d="M489.985,310.182c0,6.902,3.451,4.387,3.451,7.487c0,3.978-7.429,3.978-10.06,3.978
			c-10.06,0-10.47-2.281-10.47-3.685c0-2.106,2.398-2.223,3.1-4.036c0.761-2.047,0.878-10.529,0.234-12.693
			c-0.527-2.047-3.509-1.404-3.509-4.036c0-4.153,14.857-5.908,15.442-5.908c1.754,0,1.813,1.345,1.813,2.573V310.182z
			 M478.403,289.417c-2.456,0-5.088-1.112-5.088-3.978c0-3.861,7.721-5.44,10.704-5.44c2.339,0,5.673,0.761,5.673,3.685
			C489.692,288.247,481.737,289.417,478.403,289.417z"/>
		<path class="st1" d="M495.136,307.491c0-10.47,9.183-16.378,18.835-16.378c10.236,0,16.085,8.014,16.085,15.267
			c0,9.593-10.294,15.442-18.893,15.442C502.506,321.822,495.136,316.732,495.136,307.491z M511.454,298.015
			c-1.93,0-2.983,1.813-2.866,3.509c0.234,3.685,1.287,12.694,5.323,12.928c2.222,0.116,2.69-1.755,2.69-3.627
			C516.602,308.193,515.432,298.015,511.454,298.015z"/>
		<path class="st1" d="M548.544,311.234c0,5.674,1.99,4.68,1.99,6.903c0,3.627-7.78,3.509-10.177,3.509
			c-2.341,0-8.306,0-8.306-3.509c0-2.808,2.69-0.293,2.866-6.025l0.234-8.774c0.117-4.328-3.451-2.924-3.451-6.024
			c0-3.101,13.453-6.025,14.623-6.025c1.287,0,2.105,1.111,2.105,2.281c0,0.35-0.058,0.701-0.058,1.053
			c0,0.702,0.293,1.521,1.17,1.521c0.936,0,1.463-1.228,2.632-2.456c1.17-1.17,2.926-2.398,6.26-2.398
			c12.107,0,10.06,11.874,10.645,20.765c0.293,4.621,2.69,3.568,2.69,6.083c0,1.053,0.234,3.509-10.763,3.509
			c-2.105,0-7.721,0.117-7.721-3.159c0-2.106,1.931-1.111,2.222-4.913c0.293-4.153,1.931-13.512-3.568-13.512
			c-3.744,0-3.392,4.036-3.392,6.669V311.234z"/>
	</g>
</g>
</svg>
